<?xml version="1.0" encoding="UTF-8" standalone="no"?>
<!-- Created with Inkscape (http://www.inkscape.org/) -->

<svg
   xmlns:dc="http://purl.org/dc/elements/1.1/"
   xmlns:cc="http://creativecommons.org/ns#"
   xmlns:rdf="http://www.w3.org/1999/02/22-rdf-syntax-ns#"
   xmlns:svg="http://www.w3.org/2000/svg"
   xmlns="http://www.w3.org/2000/svg"
   xmlns:sodipodi="http://sodipodi.sourceforge.net/DTD/sodipodi-0.dtd"
   xmlns:inkscape="http://www.inkscape.org/namespaces/inkscape"
   width="181.28639"
   height="186.58986"
   viewBox="0 0 47.965358 49.368567"
   version="1.1"
   id="svg5385"
   inkscape:version="0.92.0 r15299"
   sodipodi:docname="lamar hunt us open cup.svg">
  <defs
     id="defs5379">
    <clipPath
       id="clipPath4540"
       clipPathUnits="userSpaceOnUse">
      <path
         inkscape:connector-curvature="0"
         id="path4538"
         d="M 246.695,467.077 H 381.16 V 605.52 H 246.695 Z" />
    </clipPath>
    <clipPath
       id="clipPath4540-6"
       clipPathUnits="userSpaceOnUse">
      <path
         inkscape:connector-curvature="0"
         id="path4538-4"
         d="M 246.695,467.077 H 381.16 V 605.52 H 246.695 Z" />
    </clipPath>
  </defs>
  <sodipodi:namedview
     id="base"
     pagecolor="#ffffff"
     bordercolor="#666666"
     borderopacity="1.0"
     inkscape:pageopacity="0.0"
     inkscape:pageshadow="2"
     inkscape:zoom="2.8874825"
     inkscape:cx="89.643198"
     inkscape:cy="92.294931"
     inkscape:document-units="mm"
     inkscape:current-layer="layer1"
     showgrid="false"
     fit-margin-top="0"
     fit-margin-left="0"
     fit-margin-right="0"
     fit-margin-bottom="0"
     units="px"
     inkscape:window-width="1280"
     inkscape:window-height="744"
     inkscape:window-x="-4"
     inkscape:window-y="-4"
     inkscape:window-maximized="1" />
  <metadata
     id="metadata5382">
    <rdf:RDF>
      <cc:Work
         rdf:about="">
        <dc:format>image/svg+xml</dc:format>
        <dc:type
           rdf:resource="http://purl.org/dc/dcmitype/StillImage" />
        <dc:title></dc:title>
      </cc:Work>
    </rdf:RDF>
  </metadata>
  <g
     inkscape:label="Layer 1"
     inkscape:groupmode="layer"
     id="layer1"
     transform="translate(-106.85629,-169.69915)">
    <g
       id="g4534"
       transform="matrix(0.35277777,0,0,-0.35277777,20.092361,383.57752)">
      <g
         id="g4536"
         clip-path="url(#clipPath4540-6)">
        <g
           id="g4542"
           transform="translate(347.7379,603.7684)">
          <path
             d="m 0,0 v -59.509 c 0,-0.744 -0.045,-1.483 -0.134,-2.213 -0.088,-0.731 -0.22,-1.452 -0.393,-2.161 -0.174,-0.709 -0.389,-1.406 -0.643,-2.087 -0.255,-0.681 -0.549,-1.346 -0.881,-1.992 -0.332,-0.646 -0.701,-1.272 -1.107,-1.875 -0.406,-0.603 -0.848,-1.183 -1.323,-1.737 -0.953,-1.107 -2.041,-2.108 -3.251,-2.974 l -26.071,-18.653 -26.083,18.653 c -1.817,1.299 -3.358,2.902 -4.576,4.712 -0.406,0.603 -0.776,1.229 -1.108,1.875 -1.329,2.583 -2.052,5.478 -2.052,8.455 V 0 0 Z m -69.373,1.751 v -61.257 c 0,-6.519 3.166,-12.674 8.468,-16.466 l 27.102,-19.382 27.09,19.381 c 5.3,3.793 8.464,9.947 8.464,16.464 v 61.26 z"
             style="fill:#22273f;fill-opacity:1;fill-rule:nonzero;stroke:none"
             id="path4544"
             inkscape:connector-curvature="0" />
        </g>
        <g
           id="g4546"
           transform="translate(327.5456,586.7463)">
          <path
             d="M 0,0 C 0,0 0.221,0.132 0.572,0.851 0.924,1.571 0,2.197 0,2.197 v 0.312 c 0,0 1.715,0.522 2.549,-2.641 0.835,-3.163 -2.592,-10.149 -3.471,-12.389 -0.878,-2.241 -1.757,-2.197 -1.757,-2.197 0,0 0.044,1.23 0.088,1.977 0.044,0.747 -0.396,1.494 -0.396,1.494 0,0 -0.087,0.263 0,0.483 0.089,0.22 -0.439,0.527 -0.526,0.791 -0.089,0.263 -0.44,0.659 -0.44,0.659 0,0 -0.132,0.351 -0.307,0.549 -0.176,0.198 -1.318,0.549 -1.318,0.549 0,0 -0.176,0.791 -0.22,1.45 -0.044,0.659 0.966,1.406 1.845,1.845 0.879,0.44 2.812,1.45 3.734,2.592 C 0.704,-1.186 0,0 0,0 m 15.652,-3.143 v -15.463 -15.463 -3.75 h -10e-4 l 10e-4,-5.639 c 0,-3.534 -1.386,-6.789 -4.048,-8.946 l -2.06,-1.481 -7.388,-5.309 -0.266,0.19 -0.044,0.351 c -0.043,0.352 -0.659,0.703 -1.01,0.703 -0.352,0 -0.571,0.572 -0.659,0.879 -0.088,0.308 -1.318,0.351 -1.318,0.351 v 9.973 l -0.571,0.66 h -1.45 c 0,0 -0.044,0.395 -0.132,0.571 -0.088,0.175 -0.615,0.527 -0.615,0.527 l -0.132,0.263 c -0.132,0.264 -0.483,0.352 -0.483,0.352 0,0 0.088,0.176 -0.396,0.703 -0.483,0.527 -4.481,2.987 -5.887,4.437 -1.406,1.45 0.22,3.339 0.528,3.823 0.307,0.483 -0.089,0.571 -0.089,0.571 0,0 0.22,0.132 2.68,4.595 2.461,4.464 3.647,9.288 3.647,9.288 0,0 4.349,8.216 6.59,13.84 2.241,5.623 1.714,7.952 0.484,10.014 -1.23,2.063 -4.218,1.892 -5.097,0.245 -0.879,-1.647 0.44,-2.615 0.44,-2.615 0,0 -0.308,-0.307 -0.396,-0.747 -0.088,-0.439 0.659,-0.786 0.659,-0.786 0,0 0,-0.4 -0.176,-0.839 -0.175,-0.44 -1.23,-1.143 -2.504,-1.494 -1.274,-0.352 -1.977,0.483 -1.977,0.483 0,0 -0.395,0.615 -0.263,1.055 0.131,0.439 1.098,1.142 1.405,1.362 0.308,0.219 0.352,0.659 0.528,0.663 0.175,0.004 0.351,0.786 0.483,1.003 0.132,0.216 0.176,0.43 0.176,0.43 l 0.219,0.408 v 1.628 h -0.615 c 0,0 -0.088,0.305 -0.22,0.656 -0.131,0.352 -0.922,0.484 -0.922,0.484 0,0 -0.132,0.483 -0.308,0.703 -0.175,0.219 -0.483,0.263 -2.416,1.186 -1.933,0.923 -2.856,2.987 -2.856,2.987 h -2.284 c 0,0 0.527,0.66 0.527,0.935 0,0.276 -0.527,0.427 -0.571,1.076 -0.028,0.41 -0.214,0.551 -0.347,0.599 h 29.132 0.002 z m -39.903,-7.621 c 0.088,-0.22 0,-0.483 0,-0.483 0,0 -0.439,-0.747 -0.395,-1.494 0.044,-0.747 0.088,-1.977 0.088,-1.977 0,0 -0.879,-0.044 -1.758,2.196 -0.878,2.241 -4.305,9.227 -3.47,12.39 0.834,3.163 2.549,2.64 2.549,2.64 V 2.197 c 0,0 -0.924,-0.626 -0.572,-1.346 C -27.458,0.132 -27.237,0 -27.237,0 c 0,0 -0.704,-1.186 0.219,-2.329 0.922,-1.142 2.855,-2.153 3.734,-2.592 0.879,-0.439 1.889,-1.186 1.845,-1.845 -0.044,-0.659 -0.22,-1.45 -0.22,-1.45 0,0 -1.142,-0.351 -1.318,-0.549 -0.175,-0.198 -0.307,-0.549 -0.307,-0.549 0,0 -0.352,-0.396 -0.439,-0.659 -0.089,-0.264 -0.615,-0.571 -0.528,-0.791 m -10.865,-44.341 -1.62,1.158 -0.976,0.697 v 0 l -0.728,0.535 c -2.472,1.815 -3.944,4.527 -4.34,7.563 -0.073,0.555 -0.109,1.121 -0.109,1.694 l 0.003,13.694 0.002,5.009 v 37.074 h 29.129 c -0.133,-0.048 -0.319,-0.188 -0.347,-0.599 -0.044,-0.649 -0.571,-0.8 -0.571,-1.076 0,-0.276 0.527,-0.935 0.527,-0.935 h -2.285 c 0,0 -0.922,-2.065 -2.855,-2.987 -1.933,-0.923 -2.241,-0.967 -2.416,-1.186 -0.176,-0.22 -0.308,-0.703 -0.308,-0.703 0,0 -0.791,-0.132 -0.923,-0.484 -0.132,-0.351 -0.219,-0.656 -0.219,-0.656 h -0.616 V 2.065 l 0.22,-0.408 c 0,0 0.044,-0.214 0.176,-0.43 0.132,-0.217 0.307,-0.999 0.483,-1.003 0.176,-0.005 0.22,-0.444 0.527,-0.664 0.308,-0.219 1.275,-0.922 1.406,-1.362 0.132,-0.439 -0.263,-1.054 -0.263,-1.054 0,0 -0.703,-0.835 -1.978,-0.483 -1.273,0.351 -2.328,1.054 -2.504,1.494 -0.176,0.439 -0.176,0.839 -0.176,0.839 0,0 0.748,0.347 0.66,0.786 -0.088,0.439 -0.396,0.747 -0.396,0.747 0,0 1.318,0.968 0.44,2.615 -0.879,1.647 -3.867,1.818 -5.097,-0.245 -1.23,-2.062 -1.757,-4.391 0.484,-10.015 2.24,-5.623 6.589,-13.839 6.589,-13.839 0,0 1.187,-4.824 3.647,-9.288 2.461,-4.463 2.68,-4.595 2.68,-4.595 0,0 -0.395,-0.088 -0.087,-0.571 0.307,-0.484 1.933,-2.373 0.526,-3.823 -1.405,-1.45 -5.403,-3.91 -5.887,-4.437 -0.483,-0.527 -0.395,-0.703 -0.395,-0.703 0,0 -0.352,-0.088 -0.484,-0.352 l -0.131,-0.263 c 0,0 -0.527,-0.352 -0.615,-0.527 -0.088,-0.176 -0.132,-0.571 -0.132,-0.571 h -1.45 l -0.571,-0.66 v -9.973 c 0,0 -1.23,-0.044 -1.318,-0.351 -0.088,-0.308 -0.307,-0.879 -0.659,-0.879 -0.352,0 -0.967,-0.351 -1.011,-0.703 l -0.044,-0.351 -0.266,-0.191 z m -12.313,72.127 v -59.506 c 0,-2.977 0.723,-5.872 2.051,-8.455 0.332,-0.646 0.702,-1.272 1.108,-1.875 1.218,-1.81 2.76,-3.413 4.576,-4.712 l 26.083,-18.653 26.071,18.653 c 1.211,0.866 2.299,1.867 3.251,2.974 0.476,0.554 0.917,1.134 1.323,1.737 0.406,0.603 0.776,1.229 1.108,1.875 0.332,0.646 0.626,1.311 0.88,1.992 0.255,0.681 0.469,1.378 0.643,2.087 0.173,0.709 0.305,1.431 0.394,2.161 0.088,0.73 0.133,1.469 0.133,2.213 v 59.509 z"
             style="fill:#ffffff;fill-opacity:1;fill-rule:nonzero;stroke:none"
             id="path4548"
             inkscape:connector-curvature="0" />
        </g>
        <g
           id="g4550"
           transform="translate(329.549,549.0676)">
          <path
             d="m 0,0 c 0,0.209 -0.109,0.317 -0.318,0.317 h -0.183 v 1.478 c 0,0.209 -0.109,0.318 -0.318,0.318 H -1.996 V 0.317 h -1.019 v 0.016 l 0.911,3.333 C -2.046,3.891 -2.129,4.05 -2.355,4.05 H -3.432 L -4.518,0.059 v -0.702 c 0,-0.201 0.108,-0.31 0.318,-0.31 h 2.204 v -0.943 c 0,-0.208 0.109,-0.317 0.309,-0.317 h 1.186 v 1.26 H 0 Z m -5.36,3.741 c 0,0.2 -0.107,0.309 -0.309,0.309 H -6.536 L -7.715,3.783 V 2.839 c 0,-0.217 0.142,-0.318 0.36,-0.267 l 0.501,0.134 v -4.602 c 0,-0.208 0.108,-0.317 0.318,-0.317 H -5.36 Z M 13.649,49.997 V 34.536 19.073 3.609 -0.141 h -0.002 l 0.002,-5.638 c 0,-3.534 -1.387,-6.789 -4.049,-8.947 l -2.06,-1.48 -7.387,-5.309 -0.266,0.19 -0.044,0.351 c -0.044,0.352 -0.659,0.703 -1.011,0.703 -0.351,0 -0.571,0.571 -0.659,0.879 -0.088,0.307 -1.318,0.351 -1.318,0.351 v 9.973 l -0.571,0.659 h -1.45 c 0,0 -0.044,0.396 -0.131,0.571 -0.088,0.176 -0.615,0.528 -0.615,0.528 l -0.132,0.263 c -0.132,0.264 -0.484,0.352 -0.484,0.352 0,0 0.088,0.175 -0.395,0.703 -0.483,0.527 -4.481,2.987 -5.887,4.437 -1.406,1.45 0.219,3.339 0.527,3.822 0.307,0.484 -0.088,0.572 -0.088,0.572 0,0 0.22,0.131 2.68,4.595 2.46,4.464 3.647,9.288 3.647,9.288 0,0 4.349,8.216 6.59,13.839 2.24,5.624 1.714,7.952 0.483,10.015 -1.23,2.063 -4.217,1.892 -5.096,0.245 -0.879,-1.647 0.439,-2.615 0.439,-2.615 0,0 -0.307,-0.308 -0.395,-0.747 -0.088,-0.439 0.659,-0.787 0.659,-0.787 0,0 0,-0.399 -0.176,-0.839 -0.176,-0.439 -1.23,-1.142 -2.504,-1.493 -1.274,-0.352 -1.977,0.483 -1.977,0.483 0,0 -0.396,0.615 -0.264,1.054 0.132,0.44 1.099,1.143 1.406,1.362 0.308,0.22 0.351,0.659 0.527,0.664 0.176,0.004 0.352,0.786 0.484,1.002 0.131,0.217 0.175,0.431 0.175,0.431 l 0.22,0.408 v 1.628 h -0.615 c 0,0 -0.088,0.305 -0.22,0.656 -0.132,0.352 -0.923,0.483 -0.923,0.483 0,0 -0.131,0.484 -0.307,0.703 -0.176,0.22 -0.483,0.264 -2.416,1.187 -1.934,0.922 -2.856,2.987 -2.856,2.987 h -2.285 c 0,0 0.527,0.659 0.527,0.935 0,0.275 -0.527,0.427 -0.571,1.076 -0.027,0.41 -0.213,0.55 -0.346,0.598 H 13.646 Z M -25.288,28.364 c 0,0 0.132,0.352 0.308,0.55 0.176,0.197 1.318,0.549 1.318,0.549 0,0 0.176,0.791 0.22,1.45 0.044,0.659 -0.967,1.406 -1.846,1.845 -0.878,0.439 -2.812,1.45 -3.734,2.592 -0.923,1.142 -0.219,2.328 -0.219,2.328 0,0 -0.22,0.132 -0.572,0.852 -0.351,0.72 0.572,1.345 0.572,1.345 v 0.312 c 0,0 -1.714,0.523 -2.549,-2.64 -0.834,-3.164 2.592,-10.149 3.471,-12.39 0.879,-2.24 1.757,-2.197 1.757,-2.197 0,0 -0.044,1.231 -0.088,1.977 -0.043,0.747 0.396,1.494 0.396,1.494 0,0 0.088,0.264 0,0.484 -0.088,0.219 0.439,0.527 0.527,0.79 0.088,0.264 0.439,0.659 0.439,0.659 M -25.79,1.261 c 0.383,0 0.592,0.208 0.592,0.684 v 0.309 c 0,0.468 -0.209,0.685 -0.592,0.685 -0.385,0 -0.602,-0.217 -0.602,-0.685 V 1.945 c 0,-0.476 0.217,-0.684 0.602,-0.684 m -5.381,1.578 c 0,-0.217 0.142,-0.318 0.359,-0.267 l 0.501,0.134 v -4.602 c 0,-0.208 0.109,-0.317 0.318,-0.317 h 1.178 v 5.954 c 0,0.2 -0.109,0.309 -0.309,0.309 h -0.869 l -1.178,-0.267 z m 3.285,-1.069 c 0,-1.086 0.501,-1.72 1.544,-1.72 0.552,0 0.853,0.159 1.111,0.501 h 0.033 v -1.003 c 0,-0.467 -0.209,-0.684 -0.584,-0.684 -0.401,0 -0.601,0.209 -0.601,0.576 v 0.084 c 0,0.192 -0.092,0.275 -0.309,0.275 h -1.17 v -0.3 c 0,-1.111 0.585,-1.796 2.047,-1.796 1.469,0 2.113,0.744 2.113,2.08 v 2.271 c 0,1.336 -0.644,2.079 -2.088,2.079 -1.454,0 -2.096,-0.743 -2.096,-2.079 z m -17.002,48.227 h 29.13 c -0.133,-0.048 -0.32,-0.188 -0.347,-0.599 -0.044,-0.648 -0.571,-0.8 -0.571,-1.075 0,-0.276 0.527,-0.935 0.527,-0.935 h -2.285 c 0,0 -0.922,-2.065 -2.856,-2.987 -1.933,-0.923 -2.24,-0.967 -2.416,-1.187 -0.176,-0.219 -0.307,-0.703 -0.307,-0.703 0,0 -0.791,-0.131 -0.923,-0.483 -0.132,-0.351 -0.22,-0.657 -0.22,-0.657 h -0.615 v -1.628 l 0.22,-0.407 c 0,0 0.044,-0.214 0.176,-0.431 0.132,-0.216 0.307,-0.998 0.483,-1.003 0.175,-0.004 0.22,-0.443 0.527,-0.663 0.308,-0.22 1.274,-0.922 1.406,-1.362 0.132,-0.439 -0.264,-1.054 -0.264,-1.054 0,0 -0.703,-0.835 -1.977,-0.484 -1.274,0.352 -2.328,1.055 -2.504,1.494 -0.176,0.44 -0.176,0.839 -0.176,0.839 0,0 0.747,0.347 0.659,0.787 -0.087,0.439 -0.395,0.747 -0.395,0.747 0,0 1.318,0.968 0.439,2.615 -0.878,1.646 -3.866,1.818 -5.096,-0.245 -1.23,-2.063 -1.758,-4.391 0.483,-10.015 2.241,-5.624 6.59,-13.839 6.59,-13.839 0,0 1.187,-4.824 3.647,-9.288 2.46,-4.464 2.68,-4.596 2.68,-4.596 0,0 -0.396,-0.087 -0.088,-0.571 0.307,-0.483 1.933,-2.372 0.527,-3.822 -1.406,-1.45 -5.404,-3.91 -5.887,-4.438 -0.483,-0.527 -0.396,-0.702 -0.396,-0.702 0,0 -0.351,-0.088 -0.483,-0.352 l -0.132,-0.263 c 0,0 -0.527,-0.352 -0.615,-0.528 -0.088,-0.175 -0.131,-0.571 -0.131,-0.571 h -1.45 L -28.1,-9.068 v -9.973 c 0,0 -1.23,-0.044 -1.318,-0.351 -0.087,-0.308 -0.307,-0.879 -0.658,-0.879 -0.352,0 -0.967,-0.352 -1.011,-0.703 l -0.044,-0.352 -0.266,-0.19 -5.723,4.089 -1.62,1.159 -0.975,0.697 h -10e-4 l -0.728,0.534 c -2.471,1.816 -3.943,4.528 -4.34,7.564 -0.072,0.555 -0.109,1.121 -0.109,1.694 l 0.004,13.693 0.001,5.01 z M -7.582,29.463 c 0,0 -0.176,0.791 -0.22,1.45 -0.044,0.659 0.967,1.406 1.846,1.845 0.878,0.439 2.811,1.45 3.734,2.592 0.923,1.142 0.219,2.329 0.219,2.329 0,0 0.22,0.131 0.572,0.851 0.351,0.72 -0.572,1.345 -0.572,1.345 v 0.312 c 0,0 1.714,0.523 2.549,-2.64 0.835,-3.163 -2.592,-10.149 -3.471,-12.39 -0.878,-2.24 -1.757,-2.196 -1.757,-2.196 0,0 0.044,1.23 0.087,1.977 0.044,0.747 -0.395,1.493 -0.395,1.493 0,0 -0.088,0.264 0,0.484 0.088,0.219 -0.439,0.527 -0.527,0.791 -0.088,0.263 -0.439,0.659 -0.439,0.659 0,0 -0.132,0.351 -0.308,0.549 -0.176,0.197 -1.318,0.549 -1.318,0.549"
             style="fill:#c51b31;fill-opacity:1;fill-rule:nonzero;stroke:none"
             id="path4552"
             inkscape:connector-curvature="0" />
        </g>
        <g
           id="g4554"
           transform="translate(298.7375,551.6393)">
          <path
             d="m 0,0 0.501,0.134 v -4.601 c 0,-0.209 0.109,-0.318 0.317,-0.318 H 1.996 V 1.17 c 0,0.2 -0.109,0.309 -0.309,0.309 H 0.818 L -0.36,1.211 V 0.267 C -0.36,0.05 -0.217,-0.05 0,0"
             style="fill:#ffffff;fill-opacity:1;fill-rule:nonzero;stroke:none"
             id="path4556"
             inkscape:connector-curvature="0" />
        </g>
        <g
           id="g4558"
           transform="translate(303.1574,551.3217)">
          <path
             d="M 0,0 C 0,0.468 0.217,0.685 0.601,0.685 0.985,0.685 1.193,0.468 1.193,0 V -0.309 C 1.193,-0.785 0.985,-0.993 0.601,-0.993 0.217,-0.993 0,-0.785 0,-0.309 Z m 0.05,-2.204 c 0.551,0 0.852,0.159 1.111,0.501 h 0.032 v -1.003 c 0,-0.467 -0.208,-0.684 -0.583,-0.684 -0.401,0 -0.602,0.209 -0.602,0.576 v 0.084 c 0,0.192 -0.092,0.275 -0.309,0.275 H -1.47 v -0.3 c 0,-1.111 0.585,-1.796 2.046,-1.796 1.47,0 2.113,0.744 2.113,2.08 V -0.2 c 0,1.336 -0.643,2.079 -2.088,2.079 -1.453,0 -2.096,-0.743 -2.096,-2.079 v -0.284 c 0,-1.086 0.502,-1.72 1.545,-1.72"
             style="fill:#ffffff;fill-opacity:1;fill-rule:nonzero;stroke:none"
             id="path4560"
             inkscape:connector-curvature="0" />
        </g>
        <g
           id="g4562"
           transform="translate(323.8803,553.118)">
          <path
             d="m 0,0 h -0.868 l -1.178,-0.268 v -0.944 c 0,-0.217 0.142,-0.317 0.36,-0.267 l 0.501,0.134 v -4.601 c 0,-0.209 0.108,-0.318 0.317,-0.318 h 1.177 v 5.955 C 0.309,-0.109 0.201,0 0,0"
             style="fill:#ffffff;fill-opacity:1;fill-rule:nonzero;stroke:none"
             id="path4564"
             inkscape:connector-curvature="0" />
        </g>
        <g
           id="g4566"
           transform="translate(329.2314,549.3849)">
          <path
             d="m 0,0 h -0.184 v 1.478 c 0,0.209 -0.109,0.317 -0.317,0.317 H -1.679 V 0 h -1.019 v 0.016 l 0.911,3.332 c 0.059,0.226 -0.025,0.385 -0.25,0.385 H -3.115 L -4.2,-0.259 v -0.702 c 0,-0.2 0.108,-0.309 0.317,-0.309 h 2.204 v -0.943 c 0,-0.209 0.109,-0.318 0.309,-0.318 h 1.186 v 1.261 h 0.502 v 0.953 C 0.318,-0.109 0.209,0 0,0"
             style="fill:#ffffff;fill-opacity:1;fill-rule:nonzero;stroke:none"
             id="path4568"
             inkscape:connector-curvature="0" />
        </g>
        <g
           id="g4570"
           transform="translate(253.8767,472.0848)">
          <path
             d="m 0,0 v 11.19 h 3.176 c 0.511,0 0.789,-0.277 0.789,-0.789 V 0.085 c 0,-3.346 -1.748,-5.093 -5.585,-5.093 -3.836,0 -5.563,1.747 -5.563,5.093 V 11.19 h 3.325 c 0.512,0 0.789,-0.277 0.789,-0.789 L -3.069,0 c 0,-1.044 0.533,-1.684 1.535,-1.684 C -0.533,-1.684 0,-1.044 0,0"
             style="fill:#22273f;fill-opacity:1;fill-rule:nonzero;stroke:none"
             id="path4572"
             inkscape:connector-curvature="0" />
        </g>
        <g
           id="g4574"
           transform="translate(262.698,467.2894)">
          <path
             d="m 0,0 h -2.196 c -0.532,0 -0.809,0.277 -0.809,0.81 v 3.133 h 2.216 C -0.276,3.943 0,3.666 0,3.133 Z"
             style="fill:#22273f;fill-opacity:1;fill-rule:nonzero;stroke:none"
             id="path4576"
             inkscape:connector-curvature="0" />
        </g>
        <g
           id="g4578"
           transform="translate(264.3722,471.9573)">
          <path
             d="m 0,0 v 1.108 h 3.091 c 0.511,0 0.788,-0.277 0.788,-0.789 v -0.405 c 0,-0.937 0.555,-1.662 1.876,-1.662 1.3,0 1.854,0.725 1.854,1.577 v 0.15 c 0,0.745 -0.384,1.129 -1.3,1.428 L 3.411,2.195 C 1.151,2.814 0.107,4.241 0.107,6.501 v 0.192 c 0,2.855 1.875,4.838 5.754,4.838 3.922,0 5.627,-1.855 5.627,-4.775 V 5.755 H 8.483 c -0.512,0 -0.788,0.277 -0.788,0.788 v 0.256 c 0,0.98 -0.554,1.599 -1.834,1.599 -1.214,0 -1.769,-0.619 -1.769,-1.492 V 6.799 c 0,-0.703 0.342,-1.087 1.237,-1.364 L 8.334,4.646 C 10.593,4.028 11.659,2.622 11.659,0.341 V 0 c 0,-2.834 -1.854,-4.881 -5.861,-4.881 C 1.769,-4.881 0,-2.984 0,0"
             style="fill:#22273f;fill-opacity:1;fill-rule:nonzero;stroke:none"
             id="path4580"
             inkscape:connector-curvature="0" />
        </g>
        <g
           id="g4582"
           transform="translate(280.7514,467.2894)">
          <path
             d="m 0,0 h -2.196 c -0.532,0 -0.81,0.277 -0.81,0.81 v 3.133 h 2.217 C -0.277,3.943 0,3.666 0,3.133 Z"
             style="fill:#22273f;fill-opacity:1;fill-rule:nonzero;stroke:none"
             id="path4584"
             inkscape:connector-curvature="0" />
        </g>
        <g
           id="g4586"
           transform="translate(291.3207,472.3836)">
          <path
             d="m 0,0 c 0,-1.364 0.49,-2.068 1.727,-2.068 1.214,0 1.726,0.704 1.726,2.068 V 5.797 C 3.453,7.183 2.941,7.865 1.727,7.865 0.49,7.865 0,7.183 0,5.797 Z m -4.134,0.554 v 4.689 c 0,3.858 1.896,5.862 5.861,5.862 3.964,0 5.84,-2.004 5.84,-5.862 V 0.554 c 0,-3.857 -1.876,-5.861 -5.84,-5.861 -3.965,0 -5.861,2.004 -5.861,5.861"
             style="fill:#22273f;fill-opacity:1;fill-rule:nonzero;stroke:none"
             id="path4588"
             inkscape:connector-curvature="0" />
        </g>
        <g
           id="g4590"
           transform="translate(308.0611,478.8634)">
          <path
             d="m 0,0 c 0,0.98 -0.491,1.534 -1.471,1.534 h -1.577 v -4.796 h 1.577 c 0.98,0 1.471,0.554 1.471,1.514 z m -3.048,-6.16 v -5.414 h -3.326 c -0.511,0 -0.788,0.277 -0.788,0.81 V 4.411 h 6.628 c 3.134,0 4.626,-1.406 4.626,-4.07 V -2.09 c 0,-2.663 -1.492,-4.07 -4.626,-4.07 z"
             style="fill:#22273f;fill-opacity:1;fill-rule:nonzero;stroke:none"
             id="path4592"
             inkscape:connector-curvature="0" />
        </g>
        <g
           id="g4594"
           transform="translate(323.1257,476.3268)">
          <path
             d="m 0,0 v -2.579 h -5.009 v -3.048 h 4.796 c 0.512,0 0.789,-0.277 0.789,-0.81 v -2.6 h -8.91 c -0.511,0 -0.788,0.277 -0.788,0.81 V 6.948 h 8.909 c 0.512,0 0.789,-0.277 0.789,-0.788 V 3.559 h -5.585 v -2.77 h 4.2 C -0.277,0.789 0,0.511 0,0"
             style="fill:#22273f;fill-opacity:1;fill-rule:nonzero;stroke:none"
             id="path4596"
             inkscape:connector-curvature="0" />
        </g>
        <g
           id="g4598"
           transform="translate(333.0131,468.0139)">
          <path
             d="m 0,0 -3.495,7.801 h -0.107 v -8.525 h -3.005 c -0.511,0 -0.789,0.277 -0.789,0.81 v 15.175 h 3.262 c 0.447,0 0.703,-0.213 0.937,-0.724 L 0.128,7.354 h 0.107 v 7.907 H 3.24 c 0.511,0 0.789,-0.278 0.789,-0.789 V -0.724 H 0.939 C 0.49,-0.724 0.235,-0.532 0,0"
             style="fill:#22273f;fill-opacity:1;fill-rule:nonzero;stroke:none"
             id="path4600"
             inkscape:connector-curvature="0" />
        </g>
        <g
           id="g4602"
           transform="translate(354.8142,472.1489)">
          <path
             d="m 0,0 c 0,-3.197 -1.791,-5.072 -5.478,-5.072 -3.773,0 -5.626,2.003 -5.626,5.861 v 4.689 c 0,3.857 1.853,5.861 5.626,5.861 C -1.769,11.339 0,9.443 0,6.245 V 5.564 h -3.325 c -0.534,0 -0.81,0.233 -0.81,0.724 V 6.48 c 0,1.086 -0.47,1.62 -1.407,1.62 -0.959,0 -1.429,-0.555 -1.429,-1.898 V 0.065 c 0,-1.343 0.47,-1.898 1.429,-1.898 0.916,0 1.407,0.555 1.407,1.684 V 0.916 H -0.81 C -0.277,0.916 0,0.703 0,0.213 Z"
             style="fill:#22273f;fill-opacity:1;fill-rule:nonzero;stroke:none"
             id="path4604"
             inkscape:connector-curvature="0" />
        </g>
        <g
           id="g4606"
           transform="translate(363.7974,472.0848)">
          <path
             d="m 0,0 v 11.19 h 3.176 c 0.511,0 0.789,-0.277 0.789,-0.789 V 0.085 c 0,-3.346 -1.748,-5.093 -5.585,-5.093 -3.836,0 -5.562,1.747 -5.562,5.093 V 11.19 h 3.324 c 0.512,0 0.789,-0.277 0.789,-0.789 L -3.069,0 c 0,-1.044 0.533,-1.684 1.535,-1.684 C -0.532,-1.684 0,-1.044 0,0"
             style="fill:#22273f;fill-opacity:1;fill-rule:nonzero;stroke:none"
             id="path4608"
             inkscape:connector-curvature="0" />
        </g>
        <g
           id="g4610"
           transform="translate(377.0678,478.8634)">
          <path
             d="m 0,0 c 0,0.98 -0.491,1.534 -1.471,1.534 h -1.577 v -4.796 h 1.577 c 0.98,0 1.471,0.554 1.471,1.514 z m -3.048,-6.16 v -5.414 h -3.326 c -0.511,0 -0.788,0.277 -0.788,0.81 V 4.411 h 6.628 c 3.134,0 4.626,-1.406 4.626,-4.07 V -2.09 c 0,-2.663 -1.492,-4.07 -4.626,-4.07 z"
             style="fill:#22273f;fill-opacity:1;fill-rule:nonzero;stroke:none"
             id="path4612"
             inkscape:connector-curvature="0" />
        </g>
        <g
           id="g4614"
           transform="translate(268.1251,499.304)">
          <path
             d="m 0,0 c 0.222,0 0.343,-0.12 0.343,-0.343 v -5.116 h 1.998 c 0.259,0 0.379,-0.185 0.333,-0.426 L 2.452,-6.94 h -3.553 c -0.222,0 -0.342,0.121 -0.342,0.352 V 0 Z"
             style="fill:#c51b31;fill-opacity:1;fill-rule:nonzero;stroke:none"
             id="path4616"
             inkscape:connector-curvature="0" />
        </g>
        <g
           id="g4618"
           transform="translate(277.9511,494.8347)">
          <path
             d="M 0,0 0.898,0.251 0.49,2.453 H 0.444 Z M 1.156,-1.129 -0.278,-1.526 -0.444,-2.47 h -1.351 c -0.241,0 -0.334,0.166 -0.287,0.388 l 1.443,6.551 h 2.045 c 0.213,0 0.333,-0.139 0.38,-0.342 L 3.238,-2.47 H 1.711 c -0.212,0 -0.342,0.138 -0.369,0.342 z"
             style="fill:#c51b31;fill-opacity:1;fill-rule:nonzero;stroke:none"
             id="path4620"
             inkscape:connector-curvature="0" />
        </g>
        <g
           id="g4622"
           transform="translate(289.028,493.9928)">
          <path
             d="m 0,0 -0.851,2.73 h -0.055 v -4.358 h -1.37 c -0.222,0 -0.342,0.12 -0.342,0.352 v 6.587 h 1.952 c 0.204,0 0.296,-0.092 0.361,-0.305 L 0.639,2.323 H 0.685 L 1.731,5.311 H 3.6 c 0.231,0 0.351,-0.12 0.351,-0.342 V -1.628 H 2.572 c -0.221,0 -0.342,0.12 -0.342,0.352 V 2.73 H 2.175 L 1.249,-0.305 H 0.361 C 0.157,-0.305 0.047,-0.213 0,0"
             style="fill:#c51b31;fill-opacity:1;fill-rule:nonzero;stroke:none"
             id="path4624"
             inkscape:connector-curvature="0" />
        </g>
        <g
           id="g4626"
           transform="translate(300.3463,494.8347)">
          <path
             d="M 0,0 0.898,0.251 0.49,2.453 H 0.444 Z M 1.156,-1.129 -0.278,-1.526 -0.444,-2.47 h -1.351 c -0.241,0 -0.333,0.166 -0.287,0.388 l 1.443,6.551 h 2.045 c 0.213,0 0.333,-0.139 0.38,-0.342 L 3.239,-2.47 H 1.712 c -0.213,0 -0.343,0.138 -0.37,0.342 z"
             style="fill:#c51b31;fill-opacity:1;fill-rule:nonzero;stroke:none"
             id="path4628"
             inkscape:connector-curvature="0" />
        </g>
        <g
           id="g4630"
           transform="translate(311.988,497.3887)">
          <path
             d="m 0,0 c 0,0.426 -0.213,0.667 -0.639,0.667 h -0.759 v -1.805 h 0.759 c 0.426,0 0.639,0.24 0.639,0.666 z m -2.841,-5.024 c -0.223,0 -0.343,0.12 -0.343,0.352 v 6.587 h 2.952 c 1.361,0 2.008,-0.611 2.008,-1.767 v -0.841 c 0,-0.741 -0.295,-1.232 -0.916,-1.491 l 0.916,-2.84 H 0.249 c -0.258,0 -0.378,0.101 -0.444,0.314 l -0.665,2.249 h -0.538 v -2.563 z"
             style="fill:#c51b31;fill-opacity:1;fill-rule:nonzero;stroke:none"
             id="path4632"
             inkscape:connector-curvature="0" />
        </g>
        <g
           id="g4634"
           transform="translate(328.5887,495.2696)">
          <path
             d="m 0,0 -1.351,-0.379 v -2.526 h -1.443 c -0.222,0 -0.343,0.12 -0.343,0.352 v 6.587 h 1.444 c 0.222,0 0.342,-0.12 0.342,-0.342 V 1.278 L 0,1.656 v 2.378 h 1.443 c 0.232,0 0.352,-0.12 0.352,-0.342 V -2.905 H 0.343 C 0.12,-2.905 0,-2.785 0,-2.553 Z"
             style="fill:#c51b31;fill-opacity:1;fill-rule:nonzero;stroke:none"
             id="path4636"
             inkscape:connector-curvature="0" />
        </g>
        <g
           id="g4638"
           transform="translate(338.9346,494.4464)">
          <path
             d="M 0,0 V 4.858 H 1.378 C 1.6,4.858 1.72,4.738 1.72,4.515 V 0.037 c 0,-1.453 -0.758,-2.211 -2.424,-2.211 -1.665,0 -2.414,0.758 -2.414,2.211 v 4.821 h 1.443 c 0.221,0 0.343,-0.12 0.343,-0.343 V 0 c 0,-0.454 0.23,-0.731 0.665,-0.731 C -0.232,-0.731 0,-0.454 0,0"
             style="fill:#c51b31;fill-opacity:1;fill-rule:nonzero;stroke:none"
             id="path4640"
             inkscape:connector-curvature="0" />
        </g>
        <g
           id="g4642"
           transform="translate(349.2988,492.6791)">
          <path
             d="m 0,0 -1.518,3.386 h -0.047 v -3.701 h -1.304 c -0.221,0 -0.343,0.12 -0.343,0.352 v 6.588 h 1.417 c 0.193,0 0.305,-0.092 0.407,-0.315 L 0.055,3.192 h 0.046 v 3.433 h 1.305 c 0.222,0 0.342,-0.12 0.342,-0.343 V -0.315 H 0.407 C 0.212,-0.315 0.101,-0.232 0,0"
             style="fill:#c51b31;fill-opacity:1;fill-rule:nonzero;stroke:none"
             id="path4644"
             inkscape:connector-curvature="0" />
        </g>
        <g
           id="g4646"
           transform="translate(359.6453,497.8327)">
          <path
             d="m 0,0 v -5.468 h -1.453 c -0.221,0 -0.341,0.12 -0.341,0.352 V 0 h -1.185 c -0.222,0 -0.342,0.12 -0.342,0.343 v 1.128 h 4.497 c 0.231,0 0.351,-0.12 0.351,-0.342 L 1.527,0 Z"
             style="fill:#c51b31;fill-opacity:1;fill-rule:nonzero;stroke:none"
             id="path4648"
             inkscape:connector-curvature="0" />
        </g>
      </g>
    </g>
  </g>
</svg>
