<?xml version="1.0" encoding="UTF-8"?>
<svg width="600px" height="181px" viewBox="0 0 600 181" version="1.1" xmlns="http://www.w3.org/2000/svg" xmlns:xlink="http://www.w3.org/1999/xlink">
    <!-- Generator: Sketch 47.1 (45422) - http://www.bohemiancoding.com/sketch -->
    <title>NSHOF Logo</title>
    <desc>Created with Sketch.</desc>
    <defs></defs>
    <g id="Symbols" stroke="none" stroke-width="1" fill="none" fill-rule="evenodd">
        <g id="NSHOF-Logo" fill-rule="nonzero">
            <g id="NSHOF_FullNew" transform="translate(-1.000000, 8.000000)">
                <g id="Group">
                    <g transform="translate(27.852321, 0.000000)" id="Shape">
                        <path d="M87.3788513,8.36717992 C85.8933942,3.34687197 81.2513406,0 76.0522407,0 L63.6115372,0 C66.2110872,0 68.4392729,1.67343598 69.3676836,4.0906213 L88.6786263,63.5905674 C89.4213549,66.0077527 91.8352227,67.6811887 94.4347727,67.6811887 L106.689794,67.6811887 L87.3788513,8.36717992 Z" fill="#C3002F"></path>
                        <path d="M69.3676836,4.0906213 C68.4392729,1.67343598 66.2110872,0 63.6115372,0 L14.4057698,0 C9.20666982,0 4.56461629,3.34687197 3.07915915,8.36717992 L0.665291318,15.9906105 L69.3676836,15.9906105 C71.5958693,15.9906105 73.6383728,17.4781092 74.3811014,19.7093572 L69.3676836,4.0906213 Z" fill="#222944"></path>
                    </g>
                    <g transform="translate(0.000000, 31.609346)" id="Shape">
                        <path d="M31.8598911,0.371874663 C26.6607911,0.371874663 22.0187376,3.71874663 20.5332804,8.73905459 L16.6339555,20.4531065 C17.376684,18.0359212 19.7905519,16.3624852 22.3901018,16.3624852 L84.9649835,16.3624852 C87.5645334,16.3624852 89.7927191,14.6890492 90.7211298,12.2718639 L94.6204548,0.371874663 L31.8598911,0.371874663 Z" fill="#C3002F"></path>
                        <path d="M22.3901018,16.3624852 C19.7905519,16.3624852 17.5623662,18.0359212 16.6339555,20.4531065 L1.40801988,67.3093141 C-0.263119388,72.329622 1.59370202,77.7218046 5.67870913,80.6968019 L12.3632662,85.5311726 L33.5310303,20.0812318 C34.2737589,17.8499838 36.3162624,16.3624852 38.5444481,16.3624852 L22.3901018,16.3624852 Z" fill="#222944"></path>
                    </g>
                    <g transform="translate(27.852321, 58.646421)" id="Shape">
                        <path d="M0.665291318,60.1675342 C-1.00584795,65.1878421 0.85097346,70.5800247 4.93598057,73.555022 L14.9628162,80.806578 C12.9203126,79.3190793 11.9919019,76.5300193 12.7346305,74.112834 L32.0455732,14.6128879 C32.7883018,12.1957026 32.0455732,9.40664262 29.8173875,7.91914397 L19.7905519,0.667588032 L0.665291318,60.1675342 Z" fill="#C3002F"></path>
                        <path d="M12.9203126,74.112834 C12.1775841,76.5300193 12.9203126,79.3190793 15.1484983,80.806578 L54.8844766,109.812802 C59.1551658,112.787799 64.7256301,112.787799 68.9963193,109.812802 L75.4951943,104.978431 L19.7905519,64.4440928 C17.9337305,63.1425315 17.1910019,60.7253462 17.9337305,58.4940982 L12.9203126,74.112834 Z" fill="#222944"></path>
                    </g>
                    <g transform="translate(58.412437, 91.109293)" id="Shape">
                        <path d="M51.6196353,57.4546355 C55.8903245,60.4296328 61.4607888,60.4296328 65.731478,57.4546355 L75.7583136,50.2030795 C73.7158101,51.6905782 70.7448958,51.6905782 68.7023923,50.2030795 L18.0111677,13.3874879 C15.9686642,11.8999892 12.9977499,11.8999892 10.9552463,13.3874879 L0.928410706,20.6390438 L51.6196353,57.4546355 Z" fill="#C3002F"></path>
                        <path d="M68.7023923,50.2030795 C70.7448958,51.6905782 73.7158101,51.6905782 75.7583136,50.2030795 L115.494292,21.1968558 C119.764981,18.2218585 121.43612,12.6437386 119.764981,7.80936793 L117.351113,0.185937332 L61.6464709,40.7202756 C59.7896495,42.021837 57.1900995,42.021837 55.3332781,40.7202756 L68.7023923,50.2030795 Z" fill="#222944"></path>
                    </g>
                    <g transform="translate(108.546615, 0.000000)" id="Shape">
                        <path d="M54.9619138,80.3249273 C59.2326031,77.34993 60.9037423,71.77181 59.2326031,66.9374394 L55.3332781,55.0374502 C56.0760067,57.4546355 55.3332781,60.2436955 53.1050924,61.7311941 L2.78523212,98.7327231 C0.742728565,100.220222 -0.185682141,103.009282 0.557046424,105.426467 L4.45637139,117.326456 L54.9619138,80.3249273 Z" fill="#C3002F"></path>
                        <path d="M53.2907745,61.9171314 C55.3332781,60.4296328 56.2616888,57.6405728 55.5189602,55.2233875 L40.2930247,8.36717992 C38.6218854,3.34687197 34.165514,0 28.966414,0 L20.7963998,0 L41.9641639,65.4499407 C42.7068925,67.6811887 41.9641639,70.098374 40.1073425,71.3999354 L53.2907745,61.9171314 Z" fill="#222944"></path>
                    </g>
                </g>
                <g id="Group" transform="translate(217.000000, 12.000000)" fill="#222944">
                    <path d="M14.4787723,19.5914035 C12.6225194,17.9279825 10.2093907,14.7859649 10.2093907,14.7859649 C10.2093907,14.7859649 10.7662666,18.6672807 10.7662666,21.2548246 L10.7662666,36.225614 L3.898131,36.225614 L3.898131,0 L4.64063214,0 L22.8319101,17.0038596 C24.5025377,18.6672807 27.1012917,21.8092982 27.1012917,21.8092982 C27.1012917,21.8092982 26.5444159,17.7431579 26.5444159,15.3404386 L26.5444159,0.369649123 L33.4125514,0.369649123 L33.4125514,36.4104386 L32.6700503,36.4104386 L14.4787723,19.5914035 Z" id="Shape"></path>
                    <path d="M56.2444616,0 L56.8013374,0 L73.3219879,36.0407895 L65.5257259,36.0407895 L63.4838477,31.2353509 L49.5619513,31.2353509 L47.5200731,36.0407895 L40.4663123,36.0407895 L56.2444616,0 Z M60.8850937,25.1361404 L58.6575903,19.7762281 C57.7294639,17.3735088 56.6157121,13.8618421 56.4300869,13.492193 C56.4300869,13.6770175 55.3163351,17.3735088 54.3882087,19.7762281 L52.1607053,25.1361404 L60.8850937,25.1361404 Z" id="Shape"></path>
                    <polygon id="Shape" points="83.5313786 6.83850877 73.3219879 6.83850877 73.3219879 0.369649123 101.165781 0.369649123 101.165781 6.83850877 90.95639 6.83850877 90.95639 36.225614 83.5313786 36.225614"></polygon>
                    <polygon id="Shape" points="108.776417 0.369649123 116.201429 0.369649123 116.201429 36.225614 108.776417 36.225614"></polygon>
                    <path d="M124.740192,18.2976316 C124.740192,7.76263158 132.907705,0 143.302721,0 C153.697737,0 161.865249,7.76263158 161.865249,18.2976316 C161.865249,28.8326316 153.697737,36.5952632 143.302721,36.5952632 C132.907705,36.5952632 124.740192,28.8326316 124.740192,18.2976316 Z M154.254612,18.2976316 C154.254612,11.6439474 149.799606,6.46885965 143.302721,6.46885965 C136.805836,6.46885965 132.350829,11.6439474 132.350829,18.2976316 C132.350829,24.9513158 136.805836,30.1264035 143.302721,30.1264035 C149.799606,30.1264035 154.254612,24.9513158 154.254612,18.2976316 Z" id="Shape"></path>
                    <path d="M180.984654,19.5914035 C179.128401,17.9279825 176.715272,14.7859649 176.715272,14.7859649 C176.715272,14.7859649 177.272148,18.6672807 177.272148,21.2548246 L177.272148,36.225614 L170.404012,36.225614 L170.404012,0 L171.146513,0 L189.337791,17.0038596 C191.008419,18.6672807 193.607173,21.8092982 193.607173,21.8092982 C193.607173,21.8092982 193.050297,17.7431579 193.050297,15.3404386 L193.050297,0.369649123 L199.918433,0.369649123 L199.918433,36.4104386 L199.175932,36.4104386 L180.984654,19.5914035 Z" id="Shape"></path>
                    <path d="M222.750343,0 L223.307219,0 L239.827869,36.0407895 L232.031607,36.0407895 L229.989729,31.2353509 L216.067833,31.2353509 L214.025954,36.0407895 L206.972194,36.0407895 L222.750343,0 Z M227.390975,25.1361404 L225.163472,19.7762281 C224.235345,17.3735088 223.121593,13.8618421 222.935968,13.492193 C222.935968,13.6770175 221.822216,17.3735088 220.89409,19.7762281 L218.666587,25.1361404 L227.390975,25.1361404 Z" id="Shape"></path>
                    <polygon id="Shape" points="246.696005 0.369649123 254.121016 0.369649123 254.121016 29.7567544 270.456041 29.7567544 270.456041 36.225614 246.696005 36.225614 246.696005 0.369649123"></polygon>
                    <path d="M0.742501143,84.28 L6.68251029,80.7683333 C8.35313786,83.3558772 10.395016,85.2041228 13.9218964,85.2041228 C17.0775263,85.2041228 18.9337791,83.7255263 18.9337791,81.5076316 C18.9337791,78.9200877 16.891901,77.9959649 13.5506459,76.702193 L11.694393,75.9628947 C6.31125971,73.745 2.78437929,70.787807 2.78437929,64.8734211 C2.78437929,59.3286842 7.05376086,55.0777193 13.5506459,55.0777193 C18.191278,55.0777193 21.7181584,56.7411404 24.1312871,60.9921053 L18.3769033,64.6885965 C17.0775263,62.4707018 15.7781493,61.5465789 13.5506459,61.5465789 C11.3231424,61.5465789 10.0237654,62.8403509 10.0237654,64.6885965 C10.0237654,66.9064912 11.3231424,67.830614 14.4787723,69.124386 L16.3350251,69.8636842 C22.6462849,72.6360526 26.1731653,75.2235965 26.1731653,81.5076316 C26.1731653,88.1613158 20.9756573,91.857807 13.9218964,91.857807 C7.42501143,91.6729825 2.97000457,88.5309649 0.742501143,84.28 Z" id="Shape"></path>
                    <path d="M33.2269261,73.3753509 C33.2269261,62.8403509 41.3944387,55.0777193 51.7894547,55.0777193 C62.1844707,55.0777193 70.3519833,62.8403509 70.3519833,73.3753509 C70.3519833,83.9103509 62.1844707,91.6729825 51.7894547,91.6729825 C41.3944387,91.6729825 33.2269261,83.9103509 33.2269261,73.3753509 Z M62.7413466,73.3753509 C62.7413466,66.7216667 58.2863397,61.5465789 51.7894547,61.5465789 C45.2925697,61.5465789 40.8375629,66.7216667 40.8375629,73.3753509 C40.8375629,80.0290351 45.2925697,85.2041228 51.7894547,85.2041228 C58.2863397,85.2041228 62.7413466,80.0290351 62.7413466,73.3753509 Z" id="Shape"></path>
                    <path d="M77.5913694,73.3753509 C77.5913694,62.8403509 85.758882,55.0777193 96.153898,55.0777193 C102.650783,55.0777193 107.291415,57.4804386 110.447045,62.4707018 L104.878286,66.5368421 C103.207659,63.7644737 100.237654,61.9162281 96.153898,61.9162281 C89.657013,61.9162281 85.2020061,66.9064912 85.2020061,73.5601754 C85.2020061,80.2138596 89.657013,85.3889474 96.153898,85.3889474 C100.79453,85.3889474 103.393284,83.1710526 105.435162,80.2138596 L111.189546,84.0951754 C108.033916,88.900614 103.022034,92.0426316 96.153898,92.0426316 C85.758882,91.6729825 77.5913694,83.9103509 77.5913694,73.3753509 Z" id="Shape"></path>
                    <path d="M116.94393,73.3753509 C116.94393,62.8403509 125.111443,55.0777193 135.506459,55.0777193 C142.003344,55.0777193 146.643976,57.4804386 149.799606,62.4707018 L144.230847,66.5368421 C142.560219,63.7644737 139.590215,61.9162281 135.506459,61.9162281 C129.009574,61.9162281 124.554567,66.9064912 124.554567,73.5601754 C124.554567,80.2138596 129.009574,85.3889474 135.506459,85.3889474 C140.147091,85.3889474 142.745845,83.1710526 144.787723,80.2138596 L150.542107,84.0951754 C147.386477,88.900614 142.374594,92.0426316 135.506459,92.0426316 C125.111443,91.6729825 116.94393,83.9103509 116.94393,73.3753509 Z" id="Shape"></path>
                    <polygon id="Shape" points="158.152743 55.4473684 181.91278 55.4473684 181.91278 61.9162281 165.577755 61.9162281 165.577755 70.2333333 180.056527 70.2333333 180.056527 76.5173684 165.577755 76.5173684 165.577755 84.8344737 182.655281 84.8344737 182.655281 91.3033333 158.152743 91.3033333"></polygon>
                    <path d="M191.565295,55.4473684 L204.930315,55.4473684 C212.355327,55.4473684 218.295336,58.9590351 218.295336,67.2761404 C218.295336,72.6360526 215.510957,76.1477193 211.241575,77.8111404 L219.409088,91.3033333 L210.870325,91.3033333 L203.630938,78.9200877 L198.990306,78.9200877 L198.990306,91.3033333 L191.565295,91.3033333 L191.565295,55.4473684 L191.565295,55.4473684 Z M204.74469,72.6360526 C208.457196,72.6360526 210.684699,71.1574561 210.684699,67.2761404 C210.684699,63.21 208.271571,61.9162281 204.74469,61.9162281 L198.990306,61.9162281 L198.990306,72.6360526 L204.74469,72.6360526 Z" id="Shape"></path>
                    <polygon id="Shape" points="3.898131 110.525088 11.3231424 110.525088 11.3231424 125.680702 26.7300411 125.680702 26.7300411 110.525088 34.1550526 110.525088 34.1550526 146.381053 26.7300411 146.381053 26.7300411 132.334386 11.3231424 132.334386 11.3231424 146.381053 3.898131 146.381053 3.898131 110.525088"></polygon>
                    <path d="M56.8013374,110.340263 L57.3582133,110.340263 L73.8788637,146.381053 L66.0826017,146.381053 L64.0407236,141.575614 L50.1188271,141.575614 L48.076949,146.381053 L41.0231881,146.381053 L56.8013374,110.340263 Z M61.4419696,135.291579 L59.2144661,129.931667 C58.2863397,127.528947 57.172588,124.017281 56.9869627,123.647632 C56.9869627,123.832456 55.873211,127.528947 54.9450846,129.931667 L52.7175811,135.291579 L61.4419696,135.291579 Z" id="Shape"></path>
                    <polygon id="Shape" points="80.9326246 110.525088 88.357636 110.525088 88.357636 139.912193 104.692661 139.912193 104.692661 146.381053 80.9326246 146.381053"></polygon>
                    <polygon id="Shape" points="112.674548 110.525088 120.09956 110.525088 120.09956 139.912193 136.434585 139.912193 136.434585 146.381053 112.674548 146.381053"></polygon>
                    <path d="M157.038992,128.45307 C157.038992,117.91807 165.206504,110.155439 175.60152,110.155439 C185.996536,110.155439 194.164049,117.91807 194.164049,128.45307 C194.164049,138.98807 185.996536,146.750702 175.60152,146.750702 C165.206504,146.750702 157.038992,138.98807 157.038992,128.45307 Z M186.553412,128.45307 C186.553412,121.799386 182.098405,116.624298 175.60152,116.624298 C169.104635,116.624298 164.649628,121.799386 164.649628,128.45307 C164.649628,135.106754 169.104635,140.281842 175.60152,140.281842 C182.098405,140.281842 186.553412,135.106754 186.553412,128.45307 Z" id="Shape"></path>
                    <polygon id="Shape" points="202.702812 110.525088 225.905973 110.525088 225.905973 116.993947 210.127823 116.993947 210.127823 126.235175 224.42097 126.235175 224.42097 132.88886 210.127823 132.88886 210.127823 146.381053 202.702812 146.381053"></polygon>
                    <polygon id="Shape" points="247.995382 110.525088 271.012917 110.525088 271.012917 116.993947 255.234768 116.993947 255.234768 126.235175 269.527915 126.235175 269.527915 132.88886 255.234768 132.88886 255.234768 146.381053 247.809756 146.381053 247.809756 110.525088"></polygon>
                    <path d="M289.204195,110.340263 L289.761071,110.340263 L306.281721,146.381053 L298.485459,146.381053 L296.443581,141.575614 L282.521685,141.575614 L280.479807,146.381053 L273.426046,146.381053 L289.204195,110.340263 Z M293.844827,135.291579 L291.617324,129.931667 C290.689197,127.528947 289.575446,124.017281 289.38982,123.647632 C289.38982,123.832456 288.276069,127.528947 287.347942,129.931667 L285.120439,135.291579 L293.844827,135.291579 Z" id="Shape"></path>
                    <path d="M313.149857,110.155439 L313.706733,110.155439 L331.341135,129.562018 L348.789912,110.155439 L349.346788,110.155439 L349.346788,146.381053 L342.293027,146.381053 L342.293027,132.88886 C342.293027,130.48614 342.478652,126.604825 342.478652,126.604825 C342.478652,126.604825 340.251149,129.746842 338.580521,131.595088 L331.52676,139.542544 L330.784259,139.542544 L323.730498,131.595088 C322.059871,129.746842 319.832367,126.604825 319.832367,126.604825 C319.832367,126.604825 320.017993,130.48614 320.017993,132.88886 L320.017993,146.381053 L312.964232,146.381053 L312.964232,110.155439 L313.149857,110.155439 Z" id="Shape"></path>
                    <polygon id="Shape" points="359.184928 110.525088 382.944964 110.525088 382.944964 116.993947 366.609939 116.993947 366.609939 125.126228 381.088712 125.126228 381.088712 131.410263 366.609939 131.410263 366.609939 139.727368 383.687466 139.727368 383.687466 146.196228 359.184928 146.196228"></polygon>
                </g>
            </g>
        </g>
    </g>
</svg>